<?xml version="1.0" encoding="UTF-8"?>
<svg id="Layer_1" data-name="Layer 1" xmlns="http://www.w3.org/2000/svg" viewBox="0 0 496.73 408.85">
  <defs>
    <style>
      .cls-1 {
        fill: #606161;
        stroke-width: 0px;
      }
    </style>
  </defs>
  <g>
    <g>
      <path class="cls-1" d="m244.26,113.89c1.44-.22,22.22-3.63,31.67-11.8,2.44-2.1,17.63-12.22,21.1-35.79.53-3.58,5.61-50.27-45.36-63.41-9.43-2.43-19.34,1.04-21.2,1.74,2.13.27,7.28-.48,17.11,1.48,1.14,21.68-3.84,37.43-13.18,43.68-9.61,6.43-31,17.89-35.4,45.99-.37-.94-7.32-18.17-3.92-37.37,1.36-7.68,6.1-32.49,37.59-47.39-48.33,15.58-45.21,62.92-45.31,62.95-.2-.54-.53-3.46-.73-4.33-1.15-5.06-1.92-18.07,3.53-32.08C200.83,10.1,230.2,2.32,231.21,1.99c.06-.02,7.82-2.72,19.97-1.8,44.91,3.38,57.59,47.95,54.74,72.09-5.71,48.43-56.02,64.59-84.61,53.94-1.35-.48-2.67-1.04-4-1.57-1.16-.46-2.32-.9-3.46-1.4-.55-.24-1.05-.57-1.58-.87-1.83-1.03-3.72-1.95-5.46-3.11-1.77-1.18-3.32-2.68-5.07-3.89-2.76-1.91-5.04-4.32-7.31-6.74-.94-1-1.69-2.17-2.54-3.25-1.29-1.63-2.66-3.2-3.86-4.88-.92-1.29-1.68-2.7-2.42-4.11-.61-1.16-1.07-2.4-1.63-3.59-.47-1.01-1.02-2-1.48-3.02-.31-.68-5.95-15.29-4.85-31.7,0-.32.07-.65.1-.97.1,0,.19,0,.29,0,.04.29.08,2.24.14,2.91,4.1,45.82,33.48,55.53,34.57,56.13.68.37,1.41.66,2.12.97,1.69.74,3.34,1.55,5.07,2.17,1.53.56,3.13.91,4.7,1.34,33.95,11.44,58.07-15.91,58.06-16.31-16.64,11.23-38.17,9.73-38.43,9.54Z"/>
      <path class="cls-1" d="m261.18,72.61c.11-.48,5.48-15.16,2.77-23.44-2.11-6.46-13.09-14.87-11.7-36.37,13.51,8.52,16.73,16.14,17.79,19.36,6.19,22.79-8.74,40.51-8.86,40.45Z"/>
      <path class="cls-1" d="m223.08,76.18c-8.1,4.74-14.24,19.98-10.62,29.99.06-.02-10.14-10.98-6-21.1,7.12-17.4,25.23-19.48,33.7-31.33,2.96-4.13,7.74-14.15,9.29-26.32.42,3.66,4.81,30.53-26.38,48.76Z"/>
      <path class="cls-1" d="m240.58,98.93c-2.43.18-4.5-.32-6.27-1.69-1.1-.86-2.1-1.87-3.07-2.89-.44-.46-.72-1.09-1.04-1.67-.35-.64-.02-1.19.48-1.49,1.29-.81,2.58-1.66,3.98-2.23,1.18-.48,2.42-1.06,3.78-.77.7.15,1.38.52,2.08.53.62,0,1.23-.44,1.86-.54,1.68-.27,3.31-.2,4.73.92.85.67,1.69,1.35,2.54,2.03.22.17.44.36.68.49.59.31.88,1.14.44,1.6-1.26,1.31-2.46,2.73-3.91,3.8-1.88,1.38-4.02,2.33-6.29,1.92Zm-5.43-5.85c.92,1.38,2.2,1.99,3.78,2.05,1.79.07,3.56.09,5.25-.62.57-.24,1.21-.4,1.67-.78.31-.25.62-.92.49-1.19-.21-.41-.77-.87-1.21-.9-1.19-.08-2.41-.32-3.57.37-.33.2-.98.11-1.38-.08-1.88-.88-3.77-.5-5.04,1.14Z"/>
    </g>
    <path class="cls-1" d="m268,91.48s47.91-39.2-.69-75.76c16.16,20.74,16.73,49.1.69,75.76Z"/>
  </g>
  <g>
    <path class="cls-1" d="m107.07,382.49c-1.85,2.55-8.75,13.05-16.14,13.05-1.2,0-2.34-.44-3.42-.92-1.03.54-3.26,1.74-6.2,1.74-2.72,0-4.24-1.74-4.24-3.8,0-1.47.65-3.7,1.2-5.33l6.31-19.89c.98-3.26,1.9-6.47,1.9-7.83,0-2.12-2.07-2.07-3.7-2.12l.27-.82,8.37-.71-9.89,31.36c-.49,1.41-.92,3.53-.92,4.68,0,1.52.76,3.1,3.59,3.1,1.41,0,1.9-.33,2.61-.98-1.79-1.47-2.93-3.42-2.93-7.23,0-4.95,3.53-14.89,10.54-14.89,3.1,0,4.89,2.61,4.89,5.44,0,6.79-7.39,14.73-10.38,16.47.76.38,1.63.65,2.45.65,7.01,0,14.4-10.98,16.14-13.32l-.44,1.36Zm-19.08,10.87c3.26-2.39,7.5-8.59,7.5-14.46,0-2.23-.71-4.84-3.32-4.84-3.37,0-7.23,6.09-7.23,12.18,0,3.86,1.47,5.93,3.04,7.12Z"/>
    <path class="cls-1" d="m136.54,382.49c-2.34,3.48-9.89,13.15-15.6,13.7-1.14,3.37-3.75,12.67-14.95,12.67-5.16,0-8.59-2.39-8.59-5.6,0-5.65,9.13-8.7,10.93-9.3-.27-.82-.71-2.07-.82-4.95l-.44-9.73c-.27-6.03-1.03-5.87-4.35-6.03l.27-1.09,6.85-.27c.22,1.2.27,2.5.33,3.75l.43,9.73c.16,4.89.33,8.26,2.07,8.26,4.19,0,10.38-19.79,10.82-21.2l5.06-.54-7.07,22.56c6.36-.92,12.67-9.51,15.49-13.32l-.44,1.36Zm-12.5-9.62c-.76,2.23-6.96,23.48-12.88,23.48-1.58,0-2.28-1.25-2.55-1.79-2.66.98-8.21,3.7-8.21,7.99,0,3.04,2.99,5.22,7.17,5.22,5.65,0,7.94-4.62,10.22-12.23l6.85-22.67h-.6Z"/>
    <path class="cls-1" d="m165.53,396.35c.54-1.36,2.39-6.2,2.39-13.75,0-8.59-4.24-18.59-10.65-18.59-4.46,0-5.87,5-6.2,6.2l-.71-1.14c.44-1.2,2.66-7.77,8.75-7.77,7.17,0,11.52,9.02,11.52,17.39,0,7.88-2.45,14.3-3.53,16.85l-1.58.82Zm3.64,0c1.31-2.99,3.04-7.88,3.04-15.82,0-10.71-3.37-15.44-6.25-18.97l2.72-.27c1.63,3.15,4.62,9.08,4.62,19.68,0,6.25-1.74,11.52-2.07,12.45l.11.11c2.34-2.61,16.63-16.42,16.63-24.95,0-4.51-1.79-5.22-3.26-5.93l4.35-2.99c.76,1.09,1.9,2.5,1.9,6.36,0,10.33-16.2,24.41-19.79,28.81-.22.22-.38.49-.54.71l-1.47.82Z"/>
    <path class="cls-1" d="m207.83,380.8c-.65,2.23-5.98,15.55-13.43,15.55-2.66,0-4.29-2.39-4.29-5.54,0-6.74,8.7-18.92,15.33-18.92,2.23,0,3.37,1.47,3.37,4.08,0,.98-.16,2.01-.38,2.99l.49.11,2.12-6.74,4.02-.44c-.27.65-1.25,3.04-2.34,6.58l-1.69,5.44c-.92,2.83-2.17,7.45-2.17,8.92,0,.65.49,1.09,1.03,1.09,4.13,0,12.29-10.98,13.59-12.77l-.44,1.36c-1.52,2.01-10.06,13.86-15.76,13.86-1.79,0-2.5-1.41-2.5-2.83,0-1.14.54-2.83.92-4.13l2.66-8.43-.54-.16Zm-11.58,13.1c4.62,0,10.98-10.11,10.98-15.55,0-2.55-1.3-4.57-3.59-4.57-5.65,0-10,11.31-10,15.82,0,1.9.71,4.29,2.61,4.29Z"/>
    <path class="cls-1" d="m222.35,381.95c.44-1.3,1.63-5.38,1.63-6.9,0-1.14-.82-1.63-2.61-1.63h-1.03l.27-.82,8.21-.71-7.23,23.37h.65c.65-1.96,7.83-23.37,16.52-23.37.49,0,.98.16,1.47.38l-2.12,4.62c-.44-.92-.65-1.74-2.28-1.74-6.2,0-12.45,18.75-12.94,20.38l-5,.82,4.46-14.4Z"/>
    <path class="cls-1" d="m257.14,382.76c-1.14,1.79-9.78,13.59-15.49,13.59-1.41,0-2.28-1.2-2.28-2.72,0-.92.54-2.5.92-3.7l7.12-22.61c.98-3.26,1.9-6.47,1.9-7.83,0-2.12-2.07-2.07-3.7-2.12l.27-.82,8.37-.71-9.13,29.03c-.71,2.17-1.96,6.3-1.96,7.55,0,.92.44,1.47,1.09,1.47,3.97,0,12.07-10.65,13.32-12.5l-.44,1.36Z"/>
    <path class="cls-1" d="m270.25,380.8c-.65,2.23-5.98,15.55-13.43,15.55-2.66,0-4.29-2.39-4.29-5.54,0-6.74,8.7-18.92,15.33-18.92,2.23,0,3.37,1.47,3.37,4.08,0,.98-.16,2.01-.38,2.99l.49.11,2.12-6.74,4.02-.44c-.27.65-1.25,3.04-2.34,6.58l-1.69,5.44c-.92,2.83-2.17,7.45-2.17,8.92,0,.65.49,1.09,1.03,1.09,4.13,0,12.29-10.98,13.59-12.77l-.44,1.36c-1.52,2.01-10.06,13.86-15.76,13.86-1.79,0-2.5-1.41-2.5-2.83,0-1.14.54-2.83.92-4.13l2.66-8.43-.54-.16Zm-11.58,13.1c4.62,0,10.98-10.11,10.98-15.55,0-2.55-1.3-4.57-3.59-4.57-5.65,0-10,11.31-10,15.82,0,1.9.71,4.29,2.61,4.29Z"/>
    <path class="cls-1" d="m284.99,381.95c.44-1.3,1.63-5.38,1.63-6.9,0-1.14-.82-1.63-2.61-1.63h-1.03l.27-.82,8.21-.71-7.23,23.37h.54c1.36-3.7,8.21-23.37,16.58-23.37,1.9,0,3.1,1.47,3.1,2.99,0,1.79-.65,3.42-1.14,5.11l-4.73,15.27h.65c1.14-3.32,8.1-23.37,16.42-23.37,2.17,0,3.21,1.58,3.21,3.15,0,1.69-.71,3.37-1.2,5l-2.17,6.96c-.76,2.28-1.25,4.89-1.25,5.65,0,.65.44,1.25,1.09,1.25,3.26,0,11.25-10.27,12.83-12.5l-.44,1.36c-1.63,2.28-10,13.59-15.17,13.59-1.25,0-2.12-1.14-2.12-2.39,0-1.36,1.03-4.62,1.79-6.96l2.39-7.61c.38-1.3.71-3.1.71-3.7,0-.65-.33-1.9-1.58-1.9-5.82,0-12.88,18.54-13.92,21.74l-5,.82,4.57-14.4c.65-2.23,1.52-5.06,1.52-6.2,0-.82-.33-1.96-1.69-1.96-6.03,0-13.1,19.62-13.75,21.74l-4.95.82,4.46-14.4Z"/>
    <path class="cls-1" d="m352.73,382.49c-1.2,1.74-8.75,13.05-16.04,13.05-1.09,0-2.23-.33-3.15-.71-.65.33-2.61,1.52-5.22,1.52-3.32,0-5.06-2.28-5.06-5.92,0-7.12,8.15-18.54,16.47-18.54,3.37,0,5.22,2.17,5.22,5.44,0,7.28-7.45,14.84-10.17,16.74.65.22,1.36.38,2.01.38,7.28,0,14.4-10.65,16.36-13.32l-.43,1.36Zm-17.18-8.86c-3.53,1.63-9.02,8.43-9.02,15.93,0,2.83,1.09,4.89,4.29,4.89.6,0,1.2-.16,1.74-.27-1.52-1.3-2.83-2.83-2.83-6.85,0-6.69,2.88-11.2,5.93-13.32l-.11-.38Zm-1.74,19.95c1.9-1.47,7.34-7.77,7.34-14.73,0-2.72-1.09-5.06-3.42-5.06-4.13,0-7.17,7.67-7.17,12.45,0,4.02,1.47,6.09,3.26,7.34Z"/>
    <path class="cls-1" d="m379.21,382.6c-1.41,2.34-6.41,9.73-11.96,9.73-1.36,0-2.77-.54-3.8-1.47-.87.82-5.22,5.49-9.84,5.49-3.53,0-5.54-2.83-5.54-6.41,0-8.15,6.63-14.35,6.63-15.71,0-.65-.76-.98-1.47-.98-.44,0-.82.05-1.25.27l.38-1.36,8.48-.27c-2.07,2.17-8.97,10.44-8.97,17.34,0,2.5,1.14,4.68,3.97,4.68,3.15,0,5.76-2.55,7.07-3.75-.54-.82-1.85-2.28-1.85-6.25,0-4.24,2.66-12.01,7.39-12.01,2.12,0,3.04,2.07,3.04,4.08,0,6.41-6.03,12.88-7.56,14.51.38.44,1.25,1.3,3.37,1.3,5.49,0,10.65-7.99,12.34-10.54l-.44,1.36Zm-15.82,7.07c2.12-2.28,5.38-7.45,5.38-12.94,0-1.47-.33-3.48-1.74-3.48-2.17,0-5.16,6.14-5.16,10.93,0,3.37.98,4.68,1.52,5.49Z"/>
    <path class="cls-1" d="m392.1,380.8c-.65,2.23-5.98,15.55-13.43,15.55-2.66,0-4.29-2.39-4.29-5.54,0-6.74,8.7-18.92,15.33-18.92,2.23,0,3.37,1.47,3.37,4.08,0,.98-.16,2.01-.38,2.99l.49.11,2.12-6.74,4.02-.44c-.27.65-1.25,3.04-2.34,6.58l-1.69,5.44c-.92,2.83-2.17,7.45-2.17,8.92,0,.65.49,1.09,1.03,1.09,4.13,0,12.29-10.98,13.59-12.77l-.44,1.36c-1.52,2.01-10.06,13.86-15.76,13.86-1.79,0-2.5-1.41-2.5-2.83,0-1.14.54-2.83.92-4.13l2.66-8.43-.54-.16Zm-11.58,13.1c4.62,0,10.98-10.11,10.98-15.55,0-2.55-1.3-4.57-3.59-4.57-5.65,0-10,11.31-10,15.82,0,1.9.71,4.29,2.61,4.29Z"/>
  </g>
  <g>
    <path class="cls-1" d="m121.53,304.93c-11.22,0-14.51,0-41.03-36.38l-28.45-37.54,24.96-24.96c11.22-11.42,25.93-17.42,36.96-17.42.77,0,.77-2.32,0-2.32-6.39,0-12,.58-23.61.58s-17.42-.58-24.19-.58c-.58,0-.58,2.32,0,2.32,13.16,0,15.48,6.58,5.81,16.26l-37.93,38.32v-40.83c0-11.03,2.13-13.74,14.71-13.74.58,0,.58-2.32,0-2.32-6.39,0-14.71.58-24.19.58-8.9,0-17.22-.58-23.8-.58-.58,0-.58,2.32,0,2.32,12.58,0,14.71,2.32,14.71,13.35v89.6c0,11.22-2.32,13.35-14.9,13.35-.77,0-.77,2.32,0,2.32,6.58,0,15.09-.39,24-.39,9.48,0,17.61.39,24.19.39.77,0,.77-2.32,0-2.32-12.77,0-14.71-2.13-14.71-13.35v-42.57l5.03-5.03,26.71,35.22c7.35,9.77,11.97,16.21,15.26,20.43,1.55,2,.41,4.94-2.1,5.31-1.84.27-4.08.38-6.81.38-.77,0-.77,2.32,0,2.32,5.02,0,11.18-.22,17.77-.33,4.73-.05,4.92-.05,9.75-.05h21.87c.58,0,.58-2.32,0-2.32Z"/>
    <path class="cls-1" d="m496.3,307.25c-6.58,0-15.09-.39-24-.39s-17.22.39-23.61.39c-.58,0-.58-2.32,0-2.32,12.39,0,14.71-2.13,14.13-13.35l-3.87-81.67-41.22,95.99c-.58.97-2.71.97-3.29,0l-48.38-95.6-1.74,73.54c-.19,13.55,5.23,21.09,16.45,21.09.77,0,.77,2.32,0,2.32-5.61,0-11.42-.39-18.77-.39-7.74,0-14.13.39-19.55.39-.77,0-.77-2.32,0-2.32,10.45,0,16.64-7.55,16.84-21.09l1.74-83.41c-4.45-8.13-10.06-11.81-17.22-11.81-.77,0-.77-2.32,0-2.32,5.03,0,11.03.39,14.9.39,5.8,0,10.45-.39,12.96-.39,3.48,0,4.64,1.74,8.9,10.06l42.57,83.02,38.51-88.25c1.55-3.48,3.1-4.84,6-4.84,1.94,0,4.84.39,8.51.39,7.93,0,12.39-.39,18-.39.58,0,.58,2.32,0,2.32-12.19,0-17.8,4.06-17.22,14.51l4.45,88.44c.58,11.22,2.32,13.35,14.9,13.35.58,0,.58,2.32,0,2.32Z"/>
    <g>
      <path class="cls-1" d="m318.15,299.25c-6.18,2.58-14.91,4.57-22.2,5.16-14.76,1.19-29.65-.46-43.39-5.97-12.31-4.93-24.6-13.32-33.65-25.49-9.97-13.45-12.43-21.51-22.94-24.54-.76-.22-.69-1.3.09-1.44,9.2-1.64,16.32-4.88,21.36-9.72,5.76-5.53,8.64-12.2,8.64-20.02,0-6.7-2.21-12.46-6.61-17.28-4.41-4.82-10.18-8.29-17.33-10.41-7.14-2.12-16.42-3.17-27.82-3.17l-17.64.51c-8.9,0-17.22-.58-23.8-.58-.58,0-.58,2.32,0,2.32,12.58,0,14.71,2.32,14.71,13.35v89.6c0,11.22-2.32,13.35-14.9,13.35-.77,0-.77,2.32,0,2.32,6.58,0,15.09-.39,24-.39,9.48,0,17.42.39,24.19.39.58,0,.58-2.32,0-2.32-12.77,0-14.71-2.13-14.71-13.35v-40.88c0-.41.33-.74.74-.74h3.36c3.23,0,5.61.54,7.14,1.63,1.53,1.09,4.32,4.12,8.38,9.08,4.06,4.97,7.97,10.16,11.73,15.56,11.76,16.93,36.16,27.56,57.39,32.39,21.23,4.84,38.89,1.44,55.02-2.32,9.31-2.17,18.48-7.55,24.56-11.71.2-.14.32-.37.32-.61v-1.77c0-.58-.63-.94-1.13-.63-3.17,1.97-8.06,4.57-15.49,7.66Zm-139.01-53.88c-4.68.23-9.6.12-13.12.23l-.06-.37.49-53.52c0-.4.32-.73.72-.74,1.59-.03,5.32-.1,5.79-.1,14.11,0,23.26,2.53,27.47,7.58,4.2,5.06,6.3,11.79,6.3,20.19,0,4.82-.62,8.88-1.85,12.17-1.23,3.29-2.93,5.95-5.07,7.98-2.15,2.03-4.95,3.57-8.42,4.63-3.47,1.06-7.55,1.71-12.26,1.94Z"/>
      <path class="cls-1" d="m317.15,268.32c-9.2,3.62-20.13,4.99-24.86,4.99-16.62,0-32.03-11.3-32.03-43.17,0-3.37.15-6.74.45-10.4.03-.41.38-.74.8-.74h73.25v-.03.03h.02c-2.4-23.82-25.01-35.12-43.69-35.12-29.12,0-50.71,19.7-50.71,47.11s21.58,47.11,50.71,47.11c5.94,0,17.2-1.74,27.37-5.93,5.96-2.45,11.54-5.74,15.95-8.73.22-.15.34-.39.34-.66v-2.12c0-.62-.68-1.01-1.21-.68-4.33,2.73-10.21,5.9-16.4,8.33Zm-29.82-81.18c17.53,0,25.61,11.44,25.86,27.8,0,.44-.36.81-.8.81h-50.01c-.49,0-.87-.43-.79-.91,2.11-14.39,10.48-27.7,25.74-27.7Z"/>
    </g>
  </g>
</svg>