<?xml version="1.0" encoding="utf-8"?>
<!-- Generator: Adobe Illustrator 27.2.0, SVG Export Plug-In . SVG Version: 6.00 Build 0)  -->
<svg version="1.1" id="Слой_1" xmlns="http://www.w3.org/2000/svg" xmlns:xlink="http://www.w3.org/1999/xlink" x="0px" y="0px"
	 viewBox="0 0 595.28 841.89" style="enable-background:new 0 0 595.28 841.89;" xml:space="preserve">
<style type="text/css">
	.st0{fill-rule:evenodd;clip-rule:evenodd;fill:#FF0031;}
	.st1{fill-rule:evenodd;clip-rule:evenodd;fill:#FFFFFF;}
	.st2{fill:#FFFFFF;}
</style>
<path class="st0" d="M244.11,374.58l88.07-20.44c4.67-0.87,9.03,2.7,9.04,7.49l0,35.33c0.06,3.5,3.25,6.09,6.67,5.47l97.9-22.7
	c0.99-0.23,2.16-0.48,3.17-0.48c3.83,0,6.94,3.11,6.94,6.94c0,2.4-0.8,3.34-2.06,5.15l-82.51,118.03l-0.01,0
	c-2.85,3.3-7.06,5.38-11.76,5.38c-1.22,0-2.41-0.14-3.54-0.41l0,0l-210.37-56.52l0,0c-4.02-1.07-6.98-4.73-6.99-9.08h0l0-49.61
	c0.01-4.33,1.99-8.21,5.08-10.78l81-59.28c1.21-0.88,2.14-1.45,3.67-1.71c4.39-0.75,8.94,2.53,8.94,7.54l0,34.11
	C237.29,372.57,240.65,375.25,244.11,374.58z"/>
<path class="st1" d="M163.12,420.08c0.18,2.14,1.93,4.26,4.08,4.84l22.55,6.05c1.64,0.44,3.21,0.65,4.64,0.65
	c7.01,0,6.48-4.08,2.02-8.44c-4.15-4.05-8.33-5.07-13.14-6.36l-16.08-4.31c-2.26-0.6-4.08,0.74-4.08,3v0v0v0v0v0v0
	C163.11,416.98,163.01,418.68,163.12,420.08L163.12,420.08z M237.57,455.79c0.06,2.09,1.67,4.21,3.71,4.95l39.11,10.48
	c3.2,0.85,5.1,4.14,4.24,7.34c-0.85,3.2-4.14,5.1-7.34,4.24l-46.97-12.58c-2.72-0.57-4.76-2.98-4.76-5.87v-40.77c0-3.31,2.69-6,6-6
	c0.65,0,1.28,0.1,1.87,0.3l46.95,12.58c3.2,0.85,5.1,4.14,4.24,7.34c-0.85,3.2-4.14,5.1-7.34,4.24l-35.86-9.61
	c-2.12-0.45-3.8,0.82-3.87,2.93c0,2.21,1.9,4.52,4.08,5.11l32.65,8.75c3.2,0.85,5.1,4.14,4.24,7.34s-4.14,5.1-7.34,4.24l-29.55-7.91
	C239.55,452.3,237.57,453.5,237.57,455.79L237.57,455.79z M202.12,443.96c0,0.85,0.33,1.71,0.86,2.43l8.24,9.65
	c2.16,2.5,1.89,6.28-0.61,8.44c-2.5,2.16-6.28,1.89-8.44-0.61c-4.89-5.68-10.93-12.77-15.82-18.45c-3.43-3.97-3.48-3.88-6.94-4.81
	l-12.55-3.36c-2.1-0.39-3.75,0.93-3.75,3.07v0v0v0v0v0v0l0,0.11l0,0v6.1c0,3.31-2.69,6-6,6c-3.31,0-6-2.69-6-6v-42.94
	c0-3.31,2.69-6,6-6c0.65,0,1.28,0.1,1.87,0.3l30.77,8.24c5.84,1.56,11.14,4.68,15.01,8.45c4.3,4.2,6.96,9.34,6.96,14.44
	c0,1.25-0.17,2.48-0.48,3.65c-0.75,2.81-2.31,5.15-4.51,6.95c-1.19,0.98-2.29,1.37-3.45,2.17
	C202.6,442.28,202.12,442.88,202.12,443.96L202.12,443.96z M295.45,443.61c-2.19-2.47-1.96-6.25,0.52-8.44
	c2.47-2.19,6.25-1.96,8.44,0.52l17.85,20.21c1.34,1.39,3.01,2.45,4.83,2.94c1.97,0.53,3.77,0.29,5.16-0.53l17.48-11
	c2.8-1.75,6.48-0.9,8.23,1.9c1.75,2.8,0.9,6.48-1.9,8.23l-14.3,9.01c-1.51,1.04-2.45,2.82-2.45,5.08c0,2.44,1.11,4.93,2.84,6.85
	L356.78,495c2.19,2.47,1.96,6.25-0.52,8.44c-2.47,2.19-6.25,1.96-8.44-0.52l-17.99-20.36c-1.33-1.36-2.98-2.4-4.78-2.88
	c-1.96-0.53-3.76-0.29-5.14,0.52l-15.95,10.04c-2.8,1.75-6.48,0.9-8.23-1.9c-1.75-2.8-0.9-6.48,1.9-8.23l12.7-8.01
	c1.55-1.03,2.52-2.83,2.52-5.12c0-2.39-1.06-4.82-2.73-6.72L295.45,443.61z"/>
<path class="st2" d="M286.32,402.02c1.35,0.36,2.31,0.83,2.88,1.42c0.57,0.59,0.69,1.29,0.35,2.1c-0.34,0.81-1.2,1.71-2.6,2.71
	l-8.39,6l-2.25-0.59l8.2-5.86c1.52-1.09,2.24-2.03,2.14-2.82c-0.1-0.79-0.93-1.39-2.52-1.81c-1.18-0.31-2.41-0.44-3.7-0.37
	c-1.29,0.06-2.56,0.31-3.81,0.74c-1.25,0.43-2.43,1.04-3.53,1.83l-7.59,5.43l-2.25-0.59l14.44-10.33l2.15,0.57l-3.96,2.83l0.39-0.62
	c1.57-0.61,3.24-0.97,4.99-1.09C283.04,401.45,284.72,401.6,286.32,402.02 M273.53,395.65c-0.46-0.12-0.72-0.32-0.76-0.6
	c-0.04-0.28,0.13-0.56,0.52-0.83c0.39-0.28,0.87-0.47,1.45-0.57c0.58-0.11,1.11-0.1,1.57,0.02c0.46,0.12,0.73,0.32,0.79,0.58
	c0.06,0.27-0.1,0.54-0.49,0.81c-0.4,0.29-0.9,0.49-1.48,0.61C274.55,395.79,274.01,395.78,273.53,395.65z M254.76,407.96
	l14.44-10.33l2.25,0.59l-14.44,10.33L254.76,407.96z M242.58,404.87c-1.73-0.46-2.93-1.08-3.61-1.88c-0.68-0.8-0.83-1.69-0.45-2.68
	s1.27-1.99,2.7-3.02c1.43-1.02,3.05-1.83,4.86-2.44c1.81-0.6,3.64-0.96,5.51-1.09c1.87-0.13,3.57,0.01,5.11,0.42
	c1.56,0.41,2.64,1,3.24,1.76c0.6,0.76,0.69,1.63,0.28,2.61c-0.41,0.98-1.34,1.98-2.79,3.02c-0.09,0.07-0.19,0.13-0.3,0.2
	c-0.11,0.07-0.22,0.14-0.33,0.22l-14.45-3.82l1.46-1.04l13.25,3.5l-1.46,0.18c1.04-0.75,1.72-1.48,2.02-2.2
	c0.3-0.72,0.24-1.36-0.19-1.92c-0.43-0.56-1.22-1-2.38-1.3c-1.14-0.3-2.39-0.41-3.76-0.32c-1.36,0.09-2.71,0.36-4.04,0.82
	c-1.33,0.46-2.53,1.07-3.59,1.83l-0.3,0.22c-1.1,0.79-1.79,1.55-2.06,2.3c-0.27,0.74-0.15,1.42,0.39,2.02
	c0.53,0.6,1.44,1.07,2.73,1.41c1.01,0.27,2.11,0.41,3.3,0.41c1.19,0.01,2.42-0.13,3.69-0.43v1.24c-1.51,0.36-3.02,0.53-4.53,0.53
	C245.32,405.4,243.9,405.23,242.58,404.87z M233.64,389.82l1.62-1.16l10.28,2.72l-1.62,1.16L233.64,389.82z M228.53,401.16
	c-1.56-0.41-2.4-0.99-2.51-1.74c-0.11-0.75,0.5-1.6,1.84-2.56l13.56-9.7l2.25,0.59l-13.45,9.62c-0.84,0.6-1.25,1.13-1.21,1.59
	s0.52,0.81,1.45,1.06c0.99,0.26,2.06,0.3,3.21,0.12l-0.61,1.21c-0.79,0.13-1.58,0.18-2.37,0.13
	C229.91,401.45,229.19,401.34,228.53,401.16z M211.96,395.08c1.2,0.32,2.5,0.43,3.9,0.34c1.39-0.09,2.79-0.37,4.18-0.84
	c1.39-0.47,2.65-1.1,3.76-1.9c1.14-0.81,1.86-1.59,2.16-2.34c0.31-0.75,0.23-1.41-0.23-1.99c-0.46-0.58-1.28-1.03-2.46-1.34
	c-1.18-0.31-2.47-0.42-3.86-0.33c-1.39,0.09-2.79,0.36-4.18,0.82c-1.39,0.46-2.66,1.09-3.79,1.91c-1.12,0.8-1.83,1.58-2.13,2.33
	c-0.31,0.75-0.23,1.42,0.23,2C209.99,394.33,210.8,394.78,211.96,395.08z M210.22,396.32c-1.6-0.42-2.73-1.03-3.37-1.82
	c-0.64-0.79-0.78-1.68-0.41-2.67c0.37-0.99,1.27-1.99,2.7-3.02c1.45-1.04,3.09-1.85,4.93-2.44c1.84-0.59,3.7-0.94,5.59-1.06
	c1.89-0.11,3.64,0.05,5.27,0.48c1.65,0.43,2.79,1.04,3.45,1.83c0.65,0.78,0.79,1.66,0.42,2.64c-0.37,0.98-1.28,1.99-2.73,3.02
	c-1.43,1.02-3.06,1.84-4.9,2.44c-1.84,0.6-3.71,0.96-5.63,1.07C213.62,396.91,211.85,396.75,210.22,396.32z M191.32,391.19
	l14.44-10.33l2.15,0.57l-3.93,2.81l0.47-0.55c1.56-0.66,3.18-1.06,4.86-1.18c1.67-0.12,3.32,0.03,4.95,0.46l-1.9,1.36
	c-0.08-0.02-0.16-0.05-0.24-0.08c-0.07-0.03-0.15-0.05-0.24-0.08c-1.75-0.46-3.58-0.49-5.5-0.09c-1.92,0.4-3.73,1.21-5.43,2.43
	l-7.37,5.27L191.32,391.19z M179.89,386.61c1.18,0.31,2.47,0.42,3.86,0.33c1.4-0.09,2.79-0.37,4.19-0.83c1.4-0.47,2.66-1.1,3.78-1.9
	c1.12-0.8,1.82-1.57,2.12-2.32c0.29-0.75,0.22-1.42-0.23-2c-0.45-0.59-1.27-1.04-2.45-1.35c-1.18-0.31-2.48-0.42-3.89-0.33
	c-1.41,0.09-2.81,0.37-4.19,0.83c-1.38,0.46-2.63,1.09-3.75,1.89c-1.12,0.8-1.83,1.58-2.15,2.33c-0.31,0.75-0.24,1.42,0.23,2
	C177.88,385.85,178.71,386.3,179.89,386.61z M164.54,389.34l19.77-14.15l2.15,0.57l-4.34,3.11l-3.11,2.01l-2.6,2.17l-9.63,6.89
	L164.54,389.34z M178.31,387.89c-1.43-0.38-2.44-0.93-3.02-1.65c-0.58-0.72-0.67-1.56-0.26-2.52c0.41-0.96,1.4-2.01,2.97-3.13
	c1.58-1.13,3.25-1.99,5.01-2.6c1.77-0.6,3.51-0.95,5.24-1.05c1.73-0.1,3.32,0.04,4.77,0.43c1.58,0.42,2.69,1.01,3.33,1.78
	c0.64,0.77,0.76,1.65,0.37,2.63c-0.39,0.98-1.31,1.99-2.76,3.03c-1.47,1.05-3.11,1.87-4.93,2.47c-1.82,0.6-3.66,0.95-5.54,1.07
	C181.62,388.46,179.89,388.31,178.31,387.89z"/>
</svg>
